<svg width="132" height="98" viewBox="0 0 132 98" fill="none" xmlns="http://www.w3.org/2000/svg">
<g clip-path="url(#clip0_1_4)">
<path d="M94 0L94 9L35 9V0L94 0Z" fill="#51CDA0"/>
<circle cx="35.5" cy="38.5" r="4.5" fill="#9BE6D1"/>
<circle cx="94.5" cy="4.5" r="4.5" fill="#51CDA0"/>
<circle cx="103.5" cy="21.5" r="4.5" fill="#51CDA0"/>
<circle cx="35.5" cy="4.5" r="4.5" fill="#9BE6D1"/>
<rect x="31" y="4" width="9" height="34" fill="#9BE6D1"/>
<rect x="103" y="17" width="9" height="63" transform="rotate(90 103 17)" fill="#51CDA0"/>
<path d="M3 49.7842C23.9888 64.4163 38.528 58.4037 43.1739 53.5684C45.7702 51.0456 54.5702 46 69 46" stroke="#C0504E" stroke-width="8"/>
<path d="M69 46C98.6964 46 107.373 46 108 46" stroke="#C0504E" stroke-width="8"/>
<path d="M72 66C100.173 66 108.406 66 109 66" stroke="#51CDA0" stroke-width="8"/>
<path d="M106 66C119.251 66.3556 124.188 68.8148 125 70" stroke="#51CDA0" stroke-width="8"/>
<path d="M106 46C118 46 127 48.3333 130 49.5" stroke="#C0504E" stroke-width="8"/>
<path d="M74 66C59.6 66 50.3333 70.3333 47.5 72.5" stroke="#51CDA0" stroke-width="8"/>
<path d="M48 72C32.7647 81.02 20.9755 77.9059 16.9853 75.2214L11 72.5369" stroke="#51CDA0" stroke-width="8"/>
<path d="M71 86C94.5 86 95 86 101.5 86C106.7 86 109.333 87.6667 110 88.5" stroke="#EED88B" stroke-width="8"/>
<path d="M71 86C65.8 86 60.8333 87.6667 59 88.5C58 89 55.3 90.3 52.5 91.5C49.7 92.7 41.6667 93.3333 38 93.5H31.5" stroke="#EED88B" stroke-width="8"/>
</g>
<defs>
<clipPath id="clip0_1_4">
<rect width="132" height="98" fill="white"/>
</clipPath>
</defs>
</svg>
